<?xml version="1.0" encoding="UTF-8"?>
<svg version="1.1" viewBox="0 0 1576 2048" width="788" height="1024" xmlns="http://www.w3.org/2000/svg">
<path transform="translate(0)" d="m0 0h1576v2048h-1576z" fill="#2A1C4A"/>
<path transform="translate(767,1380)" d="m0 0h3l7 8 96 96 8 7 8 9 8 7 175 175 8 7-1 4-154 154-3 5-7 7-1 2h-2v2h-2v2l-5 5-10 9-75 75 1 4 4-4h5l1-4 8-2 2-4 5-6v-3l6-2 7-3v4l-4 2-5 2 1 3 6 1 3-1 1 3 4-8 3-1 2-3 2-4h2v-8l3-1 3 3 5-1 2-5 3 2 5-1v-4l5-2 2-5 2-1 4 2h5 4l-2 4-5 2-2 6-2 1 3 4 2 7-2 7h-2l3 9 2 3-1 1 2 3-2 2-1-1-1 3 5-1 1-3h4v-2l8-2 1 2 5 2h9l6 3 5 5 2-1 3 1v-3l5-2h3l1 7-1 1v7l1 2 3 2-4 8h2v2l7-2 4 3v2l15 1v2l5-1v3l7-4 9-1 2 2 9 1 5-3 1-2 5 1v2h2l1-2 3 3 7 1v-2l5-1h6l1-1h6l4 2 1 1 4-2h2v2l5-1 2 1v-2l5-2 4-2 1-2h2v-2l3 1 2 2 5-4 3 7-1 2 5 1 2-1 6 2 5 3 3-3 8-2 7-1 10 5h2v-2l6-5 4-1 6-6-1-4-1-2 5-10h3l1 3 2-4 4-1 5 2 4-1h14l8 3 2 1h7l10 4 8-1 7-1 5 3h4l1 2 3-1h2 4l1-2 3 2 1-4 3-4 9-3 5-4-1-5h2l1-3 3-3-8-1-6-4-4-4-4 2-1-3h-2v-2l4-1 7-2 2 1 3 5 5 1 6 7v2l3-1v2l5 2 3 9 3 1 3-1v-7l1-2h-2l-3-5v-2l-5-2-4-1-5-5-6-4-2-2-2-9h-2l-1-4h4l1 2 1-1 7 1 12 8 7 8 4 2 1-5-6-6v-2h-2v-2h-2v-2h-2v-2l-4-2-2-5h-2l-7-7-6-8-9-6-4-4-5-9-2-3v-2l-4-2-1-4 1-2-4-1v-2h-5l-9-15v-2l4 2 4 4 5 3 142 142 6 7 4-1 160-160 3-1v209h-1576v-170l7 6 117 117 4-1 12-13 107-107 5-3 6-6 2 1-5 10-7 9-5 5-9 8-6 5-5 6h-2l-2 5-5 5-4 6h-2l-2 6-6 4h-2l1 8 3 1v2l-6 1-4-2-3 4h2v2h8l3 2 10-5 4 2h2v-2h4l2 7 1 3h2v-2h2l1-2 5-3 4-2h7 3l2-2 3-4v-2l4 1v-4h3l1 4h2v2l3 1v2h-5v2l-3 1h-1v2h-2l-1 4 3 1-4 2v2h5l1-4v2l3-1h3l2-5 4 2v2h2v-2l4-2v2l4-1h3l3-1v3l-1 2-4 2-2 2 1 4h5l3 4 1 4 2 4 5 4v-2l5-1 4 1h6l1-2 2 5 10-1v-2l7-1 5 2 4 4v2l4-4h7l10-3 9 4 5 1 6-2h3l3-3-3-1 1-3 8-2 1-4-2-1 5-3-7-4-1-4 8-4 5 3 5-1 2-2h3v2l15-1 18-1h2l1 6v4 3l4 1-1 8h-5v-3h-5l-1 4 2 5 5 1 2-2v2l3-1 7 3 1 2h2l2-5 1 2 11 1 9 2h3l2-4 12 1v2h5l1-2 6 1 5-5h2v2h2v2h2l1-2 4 4 2-2 4-1 13-3 7 1 2 1 6 1v-2l3-2h-2l-3-5 7-5 4 1h-2l1 7 4-1 3-1-2-5-1-2 1-4-1-3-2-1v-2h6v2l6 2 3 3-1-3 3-1 5 1 1 1 3 2h4l7 1v-2l6-5 6-1v2l-1 1 1 2-1 2 5 1 1 1 1-2h3l1-4h-2l-1 3-4-3-2 1 1-3 3-3 1-3h2l1-5-5-2-1-4-1-5-3-3 1-8-4-4 1-3-5-4-1-5-4-2 4-1 6-2h3l15 3-1 4 3 3 6 1 3 2 8 1h1l-1-6-4-1v-2h2v-3h-2l-2-4-5-3-4-8-3-3-12-5-6-5-3-5-1-4h2l-3-6v-2l-5-1 2-2v-4-2h-2l-1 2h-2v2l-5-1-4-5-1-7-4-2-4-5 1-2 5 3-1-1-6-7v-2l-4-1-8-12-8-5-5-2-2-3h2l-4-6-4-3-1-5h-2l-4-6-5-5-3-1v-2h-2v-2l-2-1-7-8-3-1v-2h-2l-1-5h-2v-2h-2l-4-8-47-47-8-7-7-7 1-4 8-8 7-8 12-11 7-8 7-6 3-4h2v-2l4-4h2v-2l8-7 193-193 8-7z" fill="#2A1C4A"/>
<path transform="translate(766,712)" d="m0 0 4 1 56 56 8 7 14 14v2l4 2 130 130 8 7 15 16 16 16 8 7 2 4 4 2 14 15 25 25 7 6-6 7-176 176-8 7-122 122h-3l-13-13-7-8-16-15-12-12-7-8-15-14-146-146-6-5-7-8-8-7-16-17-41-41-8-7-9-10 6-7 93-93 8-7 53-53 7-8 17-16 87-87 8-7 14-14 7-8 6-5z" fill="#2B1C4B"/>
<path transform="translate(766,44)" d="m0 0 5 1 9 9 7 8 37 37 6 5v2l4 2 241 241 6 5-6 7-15 16-8 7-155 155-8 7-12 13-3 3h-2v2h-2l-2 4-8 7-12 13-12 12-8 7-60 60-65-65-8-7-20-20-7-8-8-7-157-157-7-6-7-8-17-16-17-17 2-4 17-17 8-7 8-8 7-8 14-14 8-7 12-13 12-12 8-7 183-183 8-7 12-13z" fill="#2A1C4A"/>
<path transform="translate(1410,711)" d="m0 0 3 1 7 8 10 9 15 16 105 105 5 4 7 8 9 9 5 4v296l-10 9-155 155-301-301-8-7-3-3 2-4 10-10h2v-2h2l2-4 12-11 11-12 9-9 8-7 15-16 8-8 8-7 16-17 13-12 7-7 7-8 13-13 10-9 16-17 8-7 12-12 7-8 16-15 9-9 7-8 8-8 8-7 9-9 7-8 7-7 8-7 10-10 7-8 6-6h2l2-4z" fill="#2A1C4A"/>
<path transform="translate(1410,57)" d="m0 0 3 1 7 8 13 12 141 141 2 1v270l-8 6-157 157-7-6-290-290-1-3z" fill="#2B1C4B"/>
<path transform="translate(1410,1393)" d="m0 0 7 6 15 15 8 7 37 37v2h2v2l4 2v2h2l18 18 4 5 8 7 58 58 3 2v270l-8 7-17 16-139 139h-3v-2l-4-2-289-289-3-5 30-30 5-4 7-8h2l2-4z" fill="#2A1C4A"/>
<path transform="translate(124,44)" d="m0 0 4 2 12 11 12 13 10 10 8 7 11 12 12 12 8 7 16 17 9 9 8 7 7 8 46 46 8 7 12 13 16 16 6 5 7 8 19 19 7 6v2l4 2 7 8 12 12 7 6 7 8 17 17 8 7 9 9 3 4-2 4-7 8-12 11-289 289h-3l-12-12-7-8-13-13-8-7-16-17-13-12-9-9-7-8-11-11-8-7-19-19v-376l7-7 8-7 84-84 7-8 15-15z" fill="#2B1C4B"/>
<path transform="translate(767,1380)" d="m0 0h3l7 8 96 96 8 7 8 9 8 7 175 175 8 7-1 4-154 154-3 5-7 7-1 2h-2v2h-2v2l-5 5-10 9-75 75 1 4 4-4h5l1-4 8-2 2-4 5-6v-3l6-2 7-3v4l-4 2-5 2 1 3 6 1 3-1 1 3 4-8 3-1 2-3 2-4h2v-8l3-1 3 3 5-1 2-5 3 2 5-1v-4l5-2 2-5 2-1 4 2h5 4l-2 4-5 2-2 6-2 1 3 4 2 7-2 7h-2l3 9 2 3-1 1 2 3-2 2-1-1-1 3 5-1 1-3h4v-2l8-2 1 2 5 2h9l6 3 5 5 2-1 3 1v-3l5-2h3l1 7-1 1v7l1 2 3 2-4 8h2v2l7-2 4 3v2l15 1v2l5-1v3l7-4 9-1 2 2 9 1 5-3 1-2 5 1v2h2l1-2 3 3 7 1v-2l5-1h6l1-1h6l4 2 1 1 4-2h2v2l5-1 2 1v-2l5-2 4-2 1-2h2v-2l3 1 2 2 5-4 3 7-1 2 5 1 2-1 6 2 5 3 3-3 8-2 7-1 10 5h2v-2l6-5 4-1 6-6-1-4-1-2 5-10h3l1 3 2-4 4-1 5 2 4-1h14l8 3 2 1h7l10 4 8-1 7-1 5 3h4l1 2 3-1h2 4l1-2 3 2 1-4 3-4 9-3 5-4-1-5h2l1-3 3-3-8-1-6-4-4-4-4 2-1-3h-2v-2l4-1 7-2 2 1 3 5 5 1 6 7v2l3-1v2l5 2 3 9 3 1 3-1v-7l1-2h-2l-3-5v-2l-5-2-4-1-5-5-6-4-2-2-2-9h-2l-1-4h4l1 2 1-1 7 1 12 8 7 8 4 2 1-5-6-6v-2h-2v-2h-2v-2h-2v-2l-4-2-2-5h-2l-7-7-6-8-9-6-4-4-5-9-2-3v-2l-4-2-1-4 1-2-4-1v-2h-5l-9-15v-2l4 2 4 4 5 3 142 142 6 7 4-1 160-160 3-1v209h-1576v-170l7 6 117 117 4-1 12-13 107-107 5-3 6-6 2 1-5 10-7 9-5 5-9 8-6 5-5 6h-2l-2 5-5 5-4 6h-2l-2 6-6 4h-2l1 8 3 1v2l-6 1-4-2-3 4h2v2h8l3 2 10-5 4 2h2v-2h4l2 7 1 3h2v-2h2l1-2 5-3 4-2h7 3l2-2 3-4v-2l4 1v-4h3l1 4h2v2l3 1v2h-5v2l-3 1h-1v2h-2l-1 4 3 1-4 2v2h5l1-4v2l3-1h3l2-5 4 2v2h2v-2l4-2v2l4-1h3l3-1v3l-1 2-4 2-2 2 1 4h5l3 4 1 4 2 4 5 4v-2l5-1 4 1h6l1-2 2 5 10-1v-2l7-1 5 2 4 4v2l4-4h7l10-3 9 4 5 1 6-2h3l3-3-3-1 1-3 8-2 1-4-2-1 5-3-7-4-1-4 8-4 5 3 5-1 2-2h3v2l15-1 18-1h2l1 6v4 3l4 1-1 8h-5v-3h-5l-1 4 2 5 5 1 2-2v2l3-1 7 3 1 2h2l2-5 1 2 11 1 9 2h3l2-4 12 1v2h5l1-2 6 1 5-5h2v2h2v2h2l1-2 4 4 2-2 4-1 13-3 7 1 2 1 6 1v-2l3-2h-2l-3-5 7-5 4 1h-2l1 7 4-1 3-1-2-5-1-2 1-4-1-3-2-1v-2h6v2l6 2 3 3-1-3 3-1 5 1 1 1 3 2h4l7 1v-2l6-5 6-1v2l-1 1 1 2-1 2 5 1 1 1 1-2h3l1-4h-2l-1 3-4-3-2 1 1-3 3-3 1-3h2l1-5-5-2-1-4-1-5-3-3 1-8-4-4 1-3-5-4-1-5-4-2 4-1 6-2h3l15 3-1 4 3 3 6 1 3 2 8 1h1l-1-6-4-1v-2h2v-3h-2l-2-4-5-3-4-8-3-3-12-5-6-5-3-5-1-4h2l-3-6v-2l-5-1 2-2v-4-2h-2l-1 2h-2v2l-5-1-4-5-1-7-4-2-4-5 1-2 5 3-1-1-6-7v-2l-4-1-8-12-8-5-5-2-2-3h2l-4-6-4-3-1-5h-2l-4-6-5-5-3-1v-2h-2v-2l-2-1-7-8-3-1v-2h-2l-1-5h-2v-2h-2l-4-8-47-47-8-7-7-7 1-4 8-8 7-8 12-11 7-8 7-6 3-4h2v-2l4-4h2v-2l8-7 193-193 8-7zm0 14-8 7-41 41v2l-4 2-176 176-8 7-7 8-8 7-46 46 3 5 43 43 8 7 149 149 5 4 5 5 12 13 10 9 10 11 5 4 7 8 11 10 7 8 6 6h2l2 4 7 7 6 5 4-2 13-12 7-8 77-77 8-7 186-186 5-4-2-4-17-17-7-6-7-8-13-12-159-159h-2l-2-4-4-2v-2h-2l-2-4-18-18-5-4-1-2h-2l-2-4-22-22-8-7-23-23z" fill="#21253C"/>
<path transform="translate(124,726)" d="m0 0 4 1 295 295-2 4-12 11-169 169-5 6-8 7-25 25-1 2h-2v2h-2v2l-8 7-52 52-5 6-8 6-124-124v-348l121-121z" fill="#2A1C4A"/>
<path transform="translate(124,1393)" d="m0 0 7 6 57 57 8 7 13 13 4 5 8 7 19 19 4 5 8 7 23 23 7 8 10 9 16 16 6 7 8 7 54 54 4 5 8 7 10 10 7 8 11 11 7 6-6 7-88 88-7 8-8 8-8 7-76 76-7 8-12 11-12 12-7 8-16 15-12 12-7 8-10 9-22 22-7-6-94-94v-2h-2v-2l-4-2-18-18v-349l10-9z" fill="#2A1C4A"/>
<path transform="translate(0,906)" d="m0 0h265l10 5 6 8 3 9v181l-4 10-5 6-10 5-94 1-1 52h25l4 2-1 5-2 2h-138l-3-3 1-5 2-1h22v-53h-80z" fill="#2A1C4A"/>
<path transform="translate(830,1529)" d="m0 0h8l9 3 22 12 8 6 5 8 3 12v14l-4 17-5 12-7 13-8 10-5 6-11 9-14 7-14 3-9 12-10 13-10 14-13 17-11 15v9l1 2 26 1 11-12 13-9 13-5h13l9 4 23 13 5 5 5 8 3 14-1 15-4 15-8 16-6 10-11 13-11 9-11 6-7 2h-13l-9-4-23-13-8-9-4-12-26-2-2 5-9 12-13 13-13 9-10 5-10 3h-13l-11-4-19-11-10-7-6-8-4-10-2-13v-10l3-17 6-18 10-19 10-14 12-13 11-9 16-8 13-3h12l14-18 14-19 12-15 10-14 3-4 1-16 3-14 5-13 8-15 11-14 7-7 10-7 12-5z" fill="#06B283"/>
<path transform="translate(736,856)" d="m0 0h16l17 3 14 5 17 9 12 9 8 8 9 12 9 16 5 16 2 11 1 13v15l11 1 9 6 5 8 1 3v75l5 2 24 13 13 8 5 5 1 3v15l-4 18-7 17-8 14-11 13-8 8-11 7-9 1-10-5-12-11-5-6v-2h-203l-8-3-5-5-4-6-1-5v-58l3-3h7l3 2 1 59 3 4 4 1 190 1-8-17-4-13-2-12v-13l3-7 5-4 28-15 9-5h2v-74l-3-5-5-1h-214l-5 1-3 5-1 43-5 4-6-2-2-3v-45l4-8 8-7 6-2 8 1v-20l2-16 5-17 8-16 7-10 9-10 13-11 14-8 14-6 14-3z" fill="#6423D6"/>
<path transform="translate(766,250)" d="m0 0 6 1 15 10 18 10 18 8 21 6 12 2 17 2 5 3 3 5v22l-2 22-4 22-10 30-12 23-10 14-9 11-6 7-8 7-16 13-19 12-16 8-8-1-19-11-16-11-13-11-12-11-11-14-9-13-9-16-10-26-6-26-2-16-1-14v-22l3-5 8-3 20-2 17-4 19-7 22-11 14-9z" fill="#06B283"/>
<path transform="translate(0,906)" d="m0 0h265l10 5 6 8 3 9v181l-4 10-5 6-10 5-94 1-1 52h25l4 2-1 5-2 2h-138l-3-3 1-5 2-1h22v-53h-80v-49h275l-1-155-4-7-5-3-4-1-261-1z" fill="#06B283"/>
<path transform="translate(766,712)" d="m0 0 4 1 56 56 8 7 14 14v2l4 2 130 130 8 7 15 16 16 16 8 7 2 4 4 2 14 15 25 25 7 6-6 7-176 176-8 7-122 122h-3l-13-13-7-8-16-15-12-12-7-8-15-14-146-146-6-5-7-8-8-7-16-17-41-41-8-7-9-10 6-7 93-93 8-7 53-53 7-8 17-16 87-87 8-7 14-14 7-8 6-5zm1 13-250 250-8 7-40 40 4 6 53 53 8 7 6 7 8 7 9 9 7 8 27 27 8 7 165 165 5 2 93-93 8-7 34-34 7-8 5-4v-2l4-2 101-101 8-7 8-8 7-8 16-15 7-8-6-7-8-7-258-258-8-7-12-13-6-6z" fill="#6423D6"/>
<path transform="translate(767,1380)" d="m0 0h3l7 8 96 96 8 7 8 9 8 7 175 175 8 7-1 4-249 249h-2l-2 4-5 5-12 11-40 40-4-2-19-19-6-5v-2h-2v-2l-4-2-16-17-8-7-174-174-7-6-7-8-51-51-8-7-7-7 1-4 8-8 7-8 12-11 7-8 7-6 3-4h2v-2l4-4h2v-2l8-7 193-193 8-7zm0 14-8 7-41 41v2l-4 2-176 176-8 7-7 8-8 7-46 46 3 5 43 43 8 7 149 149 5 4 5 5 12 13 10 9 10 11 5 4 7 8 11 10 7 8 6 6h2l2 4 7 7 6 5 4-2 13-12 7-8 77-77 8-7 186-186 5-4-2-4-17-17-7-6-7-8-13-12-159-159h-2l-2-4-4-2v-2h-2l-2-4-18-18-5-4-1-2h-2l-2-4-22-22-8-7-23-23z" fill="#06B283"/>
<path transform="translate(766,44)" d="m0 0 5 1 9 9 7 8 37 37 6 5v2l4 2 241 241 6 5-6 7-15 16-8 7-155 155-8 7-12 13-3 3h-2v2h-2l-2 4-8 7-12 13-12 12-8 7-60 60-65-65-8-7-20-20-7-8-8-7-157-157-7-6-7-8-17-16-17-17 2-4 17-17 8-7 8-8 7-8 14-14 8-7 12-13 12-12 8-7 183-183 8-7 12-13zm1 13-202 202-8 7-29 29v2h-2v2l-4 2-53 53 6 7 9 10 43 43 8 7 228 228 4 3 4-1 253-253 8-7 14-15 16-16 5-4-2-4-49-49-8-7-11-12-16-16-8-7-117-117-7-6-7-8-19-19-7-6-7-8-15-15-8-7-15-15-2-3z" fill="#06B283"/>
<path transform="translate(1410,44)" d="m0 0 4 2 10 9 12 13 130 130 8 7 2 2v13l-4-2-147-147-8-7-5-6-4 2-294 294 3 5 293 293 7-6 154-154 5-2v13l-10 9-154 154-4-2-283-283-8-7-17-17 1-5 25-25 5-4 7-8 114-114 7-6 7-8 52-52 5-4 7-8 49-49 8-7 7-8 14-14z" fill="#6423D6"/>
<path transform="translate(1409,1380)" d="m0 0 4 1 152 152 8 7 3 3v13l-5-3-62-62-6-5-7-8-8-8-3-2v-2h-2l-4-4v-2h-2l-7-8-36-36-8-7-15-15-7 6-251 251-8 9-8 7-23 23 6 8 287 287 2 1v2l5-3 146-146 8-7 6-6h2v13l-10 9-154 154-4-1-15-16-179-179-8-7-7-8-80-80-8-7-11-11 1-5 10-9 7-8 14-14 8-7 15-16 7-7 8-7 7-7 7-8 10-10 8-7 7-7 7-8 13-13 8-7 11-12 7-7 8-7 12-12 7-8 44-44 8-7 11-12z" fill="#6423D6"/>
<path transform="translate(1410,711)" d="m0 0 3 1 7 8 10 9 15 16 105 105 5 4 7 8 9 9 5 4v14l-7-6-157-157-4 2-294 294 2 4 294 294 7-6 22-22h2l2-4 125-125 8-6v14l-10 9-155 155-301-301-8-7-3-3 2-4 10-10h2v-2h2l2-4 12-11 11-12 9-9 8-7 15-16 8-8 8-7 16-17 13-12 7-7 7-8 13-13 10-9 16-17 8-7 12-12 7-8 16-15 9-9 7-8 8-8 8-7 9-9 7-8 7-7 8-7 10-10 7-8 6-6h2l2-4z" fill="#06B283"/>
<path transform="translate(1410,960)" d="m0 0 6 1 39 16 16 8v78l-12 6-41 17-4 2-7-1-20-9-32-13-2-2v-79l28-12 24-10z" fill="#06B283"/>
<path transform="translate(123,1380)" d="m0 0 4 1 17 16 3 3v2l4 2 10 11 8 7 16 17 251 251-2 4-301 301-6 7-4-1-8-7-7-8-108-108v-13l7 6 13 13 2 1v2h2l7 8 92 92h3l28-28 8-7 7-8 16-16 8-7 14-15 12-12 8-7 9-10 76-76 8-7 7-7 7-8 88-88-4-5-8-7-12-12-7-8-9-9-6-5-7-8-53-53-8-7-7-8-16-16-8-7-11-12-20-20-6-5-7-8-18-18-6-5-7-8-12-12-8-7-57-57-7 6-115 115-3 1v-13l13-12 9-9 7-8 64-64 6-5 5-5 16-17z" fill="#6423D6"/>
<path transform="translate(124,711)" d="m0 0h2l6 7 6 5 7 8 279 279 8 7 5 6-312 312-119-119-6-5v-14l7 6 113 113 5 4 10-9 7-8 53-53h2v-2h2v-2h2l2-4 30-30 5-4 7-8 172-172 5-4-2-4-293-293-4 1-8 7-114 114h-1v-14l113-113 5-4z" fill="#06B283"/>
<path transform="translate(124,44)" d="m0 0 4 2 12 11 12 13 10 10 8 7 11 12 12 12 8 7 16 17 9 9 8 7 7 8 46 46 8 7 12 13 16 16 6 5 7 8 19 19 7 6v2l4 2 7 8 12 12 7 6 7 8 17 17 8 7 9 9 3 4-2 4-7 8-12 11-289 289h-3l-12-12-7-8-13-13-8-7-16-17-13-12-9-9-7-8-11-11-8-7-19-19v-14l7 6 105 105 8 7 4 4v2l8-7 9-9 7-8 10-9 14-14 7-8 13-12 12-12 7-8 15-14 11-11 7-8 7-7 8-7 9-9 7-8 8-8 8-7 11-11 7-8 6-6h2v-2l8-7 16-17 17-16 16-17 13-12 9-9 7-8 19-19-6-7-10-10-7-6-7-8-52-52-5-4-7-8-18-18-8-7-7-8-51-51-5-4-7-8-51-51-7-6-7-8-16-16-8-7-11-12-6-6-4 2-120 120h-2v-13l7-7 8-7 84-84 7-8 15-15z" fill="#6423D6"/>
<path transform="translate(721,1712)" d="m0 0h16l10 5 6 8 4 11 1 6v10l-3 17-6 18-8 16-9 13-11 12-9 8-13 8-12 4h-15l-10-6-6-9-3-9-1-6v-13l3-16 7-19 9-17 8-11 11-12 11-9 14-7z" fill="#2A1C4A"/>
<path transform="translate(0,1090)" d="m0 0h275v19l-4 8-6 4-3 1h-262z" fill="#2A1C4A"/>
<path transform="translate(1016,1738)" d="m0 0 3 1-149 149-8 7-77 77-7 8-8 7h-4l-13-12-1-3-4-2-10-10-7-8-10-9-5-6-8-7-9-10-12-11-5-6-5-5-13-12-117-117h3l3 3 3 1v2l6 3v2l4 2v2l4 1 4 4v3h2l3 5 1 3h2l1-2 2 4 5 2 4 5 2 4 2 1v2l5 1 2 1 13 2 5 3v-6l2-2 5 12 6 7 17 10 2 2-1 6 4 4-2 6-2 5 2 3 5 2 3 6 1 3 5 2 12 12v2h2l1 4 5 2 7 8v2h4 2l1-2 4-1 3-3h-2l-1-2-3-2 3-3 5 5 6 5 1 2 8 2 2 3 8 1 8 4v2h-9l-1-4-4 4 4 6 8-1 5 3 7 2 4 5 3-2h14l1-3h2l4-3 7-3h8l1 2 7-2 5-7h2v-2l4-2 4-6 6-3 5-8 6-5 1-2h2l2-4 7-10 8-7 6-4 9-4 5-5 7-5h2l2-4 5-4 6-8 11-7 5-6h2v-2l8-7 2-2h5l1-3 6-5h2v-2l3-3 2-4h3v-2h2l2-4 4-5 3-5 15-12 4-4 8-3 3-1v-2h2v-2l4-2 1-2h2v-2h2v-2l7-5h2l-1-3z" fill="#21253C"/>
<path transform="translate(689,1011)" d="m0 0h14l11 4 9 8 6 12 1 3v10l-4 12-6 8-1 3 4 2 8 7 8 10 4 10 1 5v11l-4 8-6 4-5 1h-54l-16-1-5-3-4-5-1-2v-14l4-13 8-11 8-7 5-3-8-11-3-9v-11l3-10 4-6 5-5 7-5z" fill="#6423D6"/>
<path transform="translate(761,311)" d="m0 0h11l11 4 8 7 4 8 1 3 1 11 7 6 3 5 1 5v42l-4 10-6 5-5 2h-52l-8-4-5-6-1-4v-50l4-6 6-5 1-11 4-9 7-8 8-4z" fill="#2A1C4A"/>
<path transform="translate(737,900)" d="m0 0h13l16 4 12 7 11 11 7 11 4 11 1 5v24l-1 1h-114l-1-1v-25l4-13 6-10 9-10 7-6 13-6z" fill="#2B1C4B"/>
<path transform="translate(853,1549)" d="m0 0h10l6 3 6 7 4 13v11l-4 15-6 15-9 15-16 16-10 6-9 3h-10l-8-4-4-5-4-13v-14l4-16 8-16 7-11 11-12 8-6 12-6z" fill="#291D49"/>
<path transform="translate(852,1738)" d="m0 0h11l8 4 5 6 3 10v17l-5 17-10 19-8 10-11 11-10 6-8 3-10 1-9-4-5-6-3-8-1-8 2-17 4-12 8-16 7-10 9-10 11-8 8-4z" fill="#21253C"/>
<path transform="translate(864,1077)" d="m0 0 5 1 23 13 15 8v9l-3 17-6 15-10 16-8 10-10 9-6 2-10-8-7-7-10-15-9-19-3-11-1-6v-12l19-10 20-11z" fill="#2B1C4B"/>
<path transform="translate(731,869)" d="m0 0h23l15 3 16 7 11 7 11 9 8 9 9 15 4 10 4 17 1 10v17l-1 1h-16l-2-7-1-19-3-12-5-12-6-9-1-3h-2l-5-6-13-9-11-5-11-3-15-1-13 1-15 5-10 6-12 11-7 8-6 11-4 13-1 5-1 25-1 1h-16l-1-1-1-19 3-19 4-12 7-13 7-9 10-11 11-8 14-7 17-5z" fill="#2B1C4B"/>
<path transform="translate(1575,1839)" d="m0 0h1v128l-2 1-3-2v-6l1-4-2-5-4 3h-2l-1 21-2 5-4-1 2-5v-4l-1-6-4-1 3-4v-5l-4-4-3-5-4-4-3-2 2-4-2-1-4 1v2l-4-1 1-3-5-5 1-4h-3l-1 5-3 1-4-1v-2l-2-1-4 8h-4-1v4l3 1v3l5 1 1 2h3l-1 3-2 2v3l-3-1 1 3-4 1-4-2h-2l3 3 2 1-1 4-2-2-5 1-1-2-7 1-1-7-2-1 1-4 6-5 1-3-4 2h-3v2h-2l-2 2-1-5 5-5 4-1 1 1v-6l-1-3 3-5 6-5 5-6 3-3 6-3 5-5 6-9 4-3h2l2-4 4-6 5-4 4-5h2l1-3 5-4 2-3h2l2-5 1-5-7 6-18 18-2-1 32-32z" fill="#2A1C4A"/>
<path transform="translate(914,326)" d="m0 0 5 1 4 20 1 12v12l-2 19-5 21-7 19-8 15-8 12-7 9-9 10-13 12-18 12-10 6-20 8-25 6-17 2h-17l-22-3-19-5-19-8-18-10-7-5-4 1-8 3h-9l-10-4-7-8-3-8v-11l4-8 4-5 10-5h13l8 4 5 5 4 6 1 3v12l-3 8 15 10 21 10 19 6 17 3h33l24-5 18-6 23-12 11-8 10-9 12-12 10-14 9-15 8-20 5-19 2-12v-32l-2-12v-10z" fill="#06B283"/>
<path transform="translate(1511,887)" d="m0 0 5 1 24 10 9 5v41l-5 3-30 13-6-1-30-13-2-2v-41l16-8z" fill="#06B283"/>
<path transform="translate(1309,1088)" d="m0 0 7 1 30 13 2 1v42l-5 3-25 11-7 2-20-8-16-8v-41l4-3z" fill="#06B283"/>
<path transform="translate(1510,1088)" d="m0 0 7 1 27 12 5 3v41l-16 8-17 7h-7l-30-13-3-2v-41l16-8z" fill="#06B283"/>
<path transform="translate(1310,887)" d="m0 0 6 1 29 13 3 2v41l-6 4-29 12-6-1-30-13-2-2v-40l3-3 27-12z" fill="#06B283"/>
<path transform="translate(756,208)" d="m0 0h19l17 2 18 4 15 5 19 9 5 3 12-6h7l10 4 5 5 4 9v9l-4 8-5 5-8 4h-10l-10-5-4-5-3-9 1-12-17-9-19-7-19-4-8-1h-30l-22 4-18 6-19 9-12 8-10 8-10 9-9 11-9 12-10 18-7 19-4 15-2 12v33l1 14-1 1h-5l-2-6-2-20v-14l2-17 5-21 8-20 9-17 12-16 12-13 11-10 16-11 17-9 18-7 21-5z" fill="#06B283"/>
<path transform="translate(89,1130)" d="m0 0h72l1 1v52h-74v-52z" fill="#2A1C4A"/>
<path transform="translate(255,1855)" d="m0 0 1 3-26 26-7 8-12 11-12 12-7 8-16 15-12 12-7 8-10 9-22 22-7-6-94-94v-2h-2v-2l-4-2-18-18v-6l6 3 3 3 8 4 7 8 5 5 9 7 2 5 9 9v2h2l4 5 11 7 11 11v2l4 2 13 11 9 2 2-2-5-3-5-7-2-1 1-2 5 3 12 2v2h4v2h6l3 3v2l-6 4h-6l4 2 2 4 4 3v2l5 4 4-1 6-8 4-3h2v-2l6-4 3-3h5l5-3 7-8 8-8 6-4 7-7 5-3 7-8 6-6h2l2-4 8-7 7-7 4-6 7-6 6-3 8-6h2z" fill="#21253D"/>
<path transform="translate(1540,1855)" d="m0 0 2 1-2 4-128 128h-3v-2l-4-2-121-121 1-3 7 6 4 4 8 4 7 10 9 9 5 3 7 10 2 2 2-1 2 5 11 9v2l6 2 4 3 1 6 3 3 5 1 5 6 4 1 8 6h5l3-5-2-1v-2l-4-1v-3h2l2-4h2l1 4-1 2 7-1 1-3 9-3 5-1 7-2 3 2-2 4-6 4h-2v2h8l2-4 7-1 2 8 7-1 11-9 10-9 5-6 2-4 8-4 5-5 11-10 3-6 6-4 6-5h2v-2l8-6 6-7 2-1v-2l5-5 3-2 4-2z" fill="#21253D"/>
<path transform="translate(708,1732)" d="m0 0 7 1 5 5 1 3v9l-5 12-3 4 11 1 6 3 5 5 4 11v6l-4 4-19 11-20 12-20 11-5-1v-12l5-15 7-12 8-10 6-5 1-2-6-2-4-6v-10l4-9 6-8 5-4z" fill="#06B283"/>
<path transform="translate(81,942)" d="m0 0h7l6 4 4 5 1 2v8l-4 6-3 3-3 1-1 12 5 2 5 6 1 2v8l-2 4 1 5 15 15h5l2-2v-11l-6-4-4-5-1-9 5-8 7-4h7l6 4 4 5 1 2v8l-4 6-5 4v14l4 2 4 5 1 2v8l-5 8-5 3h-9l-6-4-4-5-1-9-7-8-13-13-13-4-5-5-2-9 3-8 6-5 1-3v-10l-5-2-4-6-1-8 4-7 5-4z" fill="#06B283"/>
<path transform="translate(699,1698)" d="m0 0h14l10 5 1 2-16 6-11 6-11 9-12 13-10 15-8 16-6 16-3 15v20l3 14-5-2-8-6-5-8-3-10v-22l5-20 8-18 8-13 8-10 8-9 14-11 12-6z" fill="#2A1C49"/>
<path transform="translate(1459,995)" d="m0 0h3v63l-38 16-5 2h-3v-60l1-3 25-11z" fill="#2A1C4A"/>
<path transform="translate(1362,995)" d="m0 0 10 3 34 14 2 2v45l-1 17-9-3-36-15z" fill="#2A1C4A"/>
<path transform="translate(121,942)" d="m0 0 9 1 7 6 2 4v11l19 19 10-1 8 4 4 6v10l-4 6-4 3v13l7 7 1 2v11l-3 5-7 4h-9l-6-4-4-7v-8l4-6 6-4 1-13-5-2-5-6-1-2v-11l-16-17-2-1-15-1-7-6-2-10 4-8z" fill="#06B283"/>
<path transform="translate(828,1536)" d="m0 0h11l10 4 3 3-16 7-11 8-7 7-10 14-8 15-6 20-1 12 1 15-10-5-5-6-3-9-1-9 2-15 5-15 8-15 13-16 8-7 14-7z" fill="#2A1C49"/>
<path transform="translate(832,1724)" d="m0 0 9 1 11 5v2l-13 5-10 7-10 9-9 12-10 19-5 17-1 6v13l1 10-10-5-5-6-3-7-1-5v-11l3-15 6-15 7-12 7-9 6-7 13-9 9-4z" fill="#2A1C49"/>
<path transform="translate(689,1078)" d="m0 0h15l9 4 8 7 7 8 3 9v9l-1 1h-67l-1-1v-11l6-12 8-8 10-5z" fill="#2B1C4B"/>
<path transform="translate(839,1564)" d="m0 0h8l4 4 1 9-5 12 9 1 5 5 3 4 1 10-5 5-23 13-14 8-6 3h-4l-1-6 3-12 6-12 8-10 2-2-5-6-1-7 4-10 6-7z" fill="#06B283"/>
<path transform="translate(840,1752)" d="m0 0h7l5 5v11l-5 10h8l5 3 4 6 1 3v9l-9 6-19 11-14 8-5 3-5-1v-8l3-12 9-14 6-6-2-4-3-5v-7l6-12z" fill="#06B283"/>
<path transform="translate(789,1648)" d="m0 0 6 1 10 6 6 3-6 9-12 15-8 11-12 16-11 14-1 2h-2l-6-10-8-7 4-7 8-10 21-28z" fill="#2A1C49"/>
<path transform="translate(770,1629)" d="m0 0 3 1 5 8 6 5-1 4-12 16-14 19-14 18-5 5-13-8-3-1 1-4 16-21 13-18 14-18z" fill="#2A1C49"/>
<path transform="translate(1410,970)" d="m0 0 7 1 31 13 6 3-3 3-37 15-7-1-33-14-4-2v-2l30-12z" fill="#2A1C49"/>
<path transform="translate(0,1890)" d="m0 0 3 1v2l3 1 3 6 4 4 7 6 1 3h-2v2l4 2 5 5 3 2-1 11 4 5v4l6 1 1 4v7h-3l-2-2-3 3-1 4-8-1 1 5-1 3h-2v2l3 1 5 1-1 3-7 1-2-3-5-4 1-7 1-3h-2l-2-6-1-14-2-10h2l-4-6-4-1-4 1z" fill="#2A1C4A"/>
<path transform="translate(689,1024)" d="m0 0h13l6 3 7 8 2 6-1 9-3 6-8 7-2 1h-13l-7-4-5-6-2-5v-10l4-8 7-6z" fill="#2B1C4B"/>
<path transform="translate(715,1773)" d="m0 0h7l6 4 3 4 1 9-9 6-27 15-17 10h-1l1-8 5-12 7-11 7-8 11-7z" fill="#21263C"/>
<path transform="translate(878,1758)" d="m0 0h1v17l-5 17-10 19-8 10-11 11-10 6-4 2-4-1 2-4-3-3 1-4 4-4 12-6 5-6 4-1v-2h3v-2l-4 1 3-3 10-6v-9l-4-8-2-3 5-2 1-11 2-2 6 5 1 3 1-9 3-1z" fill="#21253C"/>
<path transform="translate(852,1738)" d="m0 0h11l8 4 5 6 2 5v7l-3 3-1 11-2-2-3-5-3-2-2 6v6l-3 1-1 2-13-2 4-10v-11l-3-3-2-4-9-2 3-5 8-4z" fill="#291D49"/>
<path transform="translate(764,318)" d="m0 0 10 1 6 3 5 5 3 5 1 4v7h-44l-1-2 3-12 5-6 8-4z" fill="#06B283"/>
<path transform="translate(756,1030)" d="m0 0h63l4 4v6l-3 3h-64l-4-5 1-5z" fill="#6423D6"/>
<path transform="translate(637,1760)" d="m0 0 2 3 1 6-2 5-2-2-4 16h2l1 2 4-9-1-3 2-6h1l1 5 4-3v12l1 2 2-1-2 14v20l3 14-5-2-8-6-5-8-3-10v-22l5-20z" fill="#21253D"/>
<path transform="translate(807,1796)" d="m0 0 2 2-1 6 4-1 3 6-1 17 6-1 19-11 10-6 6-1v2h-3v2l-4 1-2 4-6 5-10 5-3 3 1 4 2 4-3 4-10 1-9-4-5-6-3-8-1-8 1-12 3-7 2 2z" fill="#291D49"/>
<path transform="translate(782,1773)" d="m0 0 1 4-1 8-1 4h3l3-9h2l2-4 2 1 4 7h2l-2 9-3 14v13l1 10-10-5-5-6-3-7-1-5v-11l3-15z" fill="#21263C"/>
<path transform="translate(882,1108)" d="m0 0 6 1 3 4-1 5-7 8-18 18-6 1-10-8-6-7 1-5 3-3h6l5 4v2l5-1 13-13 4-5z" fill="#6423D6"/>
<path transform="translate(1308,970)" d="m0 0h8l1 49 25 1 1 1v6l-1 1h-34l-1-4v-53z" fill="#06B283"/>
<path transform="translate(1482,1020)" d="m0 0h34l1 1v52l-2 5h-6l-1-1-1-48-25-1-1-1v-6z" fill="#06B283"/>
<path transform="translate(757,1065)" d="m0 0h43l5 3 1 6-3 4-3 1h-32l-13-1-3-4 1-6z" fill="#6423D6"/>
<path transform="translate(1411,919)" d="m0 0h53l2 1v6l-2 2h-48v21l-2 2-6-1v-30z" fill="#06B283"/>
<path transform="translate(163,942)" d="m0 0 9 1 6 5 2 4v9l-4 7-5 3-8 1-8-4-4-7v-8l4-6 5-4z" fill="#06B283"/>
<path transform="translate(80,1024)" d="m0 0h9l6 4 4 6v8l-6 9-5 2h-7l-6-3-5-6-1-8 3-6 6-5z" fill="#06B283"/>
<path transform="translate(1411,1097)" d="m0 0 4 1 1 1v28l-1 1-27 1h-28l-2-1v-8l49-1 1-21z" fill="#06B283"/>
<path transform="translate(762,1763)" d="m0 0h17l-3 9-4 14-2 14-1 2h-19l-1-2 7-16z" fill="#21253C"/>
<path transform="translate(1537,913)" d="m0 0h3v26l-13 6-8 3h-3l1-26 12-6z" fill="#2A1C49"/>
<path transform="translate(1338,912)" d="m0 0h1v27l-20 9h-3v-26l10-5z" fill="#291D49"/>
<path transform="translate(737,1794)" d="m0 0 1 2 5-1 2-1-2 6-8 12-9 11-9 9-14 10-12 5-4 1h-15v-1l13-1 8-4 3-1v-2l10-4 6-4h2l1-5h-5l-1-5 6-4 7-8 1-4-5 1 3-3z" fill="#21263C"/>
<path transform="translate(1538,1113)" d="m0 0h2v27l-19 8-4 1v-26l14-7z" fill="#2A1C49"/>
<path transform="translate(1284,913)" d="m0 0 5 1 17 7 1 1v26l-5-1-18-8z" fill="#2A1C49"/>
<path transform="translate(1485,913)" d="m0 0 10 3 13 6v25l-3 1-18-8-2-1z" fill="#2A1C49"/>
<path transform="translate(1284,1114)" d="m0 0 6 1 17 7v27l-9-3-14-6z" fill="#291D49"/>
<path transform="translate(1335,1114)" d="m0 0h4v26l-19 8-4 1v-26l12-6z" fill="#291D49"/>
<path transform="translate(1485,1113)" d="m0 0 20 8 3 2v25l-2 1-18-8-3-2z" fill="#2A1C49"/>
<path transform="translate(843,1596)" d="m0 0h10l5 5 1 5-3 3-25 14-10 6-1-4 4-9 7-11 10-8z" fill="#291D48"/>
<path transform="translate(844,1785)" d="m0 0h11l4 6 1 4-9 6-22 12-7 4h-2l3-10 7-11 9-9z" fill="#21263C"/>
<path transform="translate(763,363)" d="m0 0h8l4 5-1 12 2 9v8l-2 2h-14l-2-2v-8l2-10-1-11z" fill="#06B283"/>
<path transform="translate(715,1773)" d="m0 0h7l6 4 3 4 1 9-1 1h-7l-5-2-2-4-11 2-9 8-2 4-5 5-2-1v-2l-2-1 4-6 2-5 6-7 11-7z" fill="#2A1C49"/>
<path transform="translate(1309,1098)" d="m0 0 8 1 14 6-1 3-17 7-5-1-16-7 3-3z" fill="#291D49"/>
<path transform="translate(1510,897)" d="m0 0 7 1 14 6 1 2-18 8-5-1-16-7v-2z" fill="#291D48"/>
<path transform="translate(1309,897)" d="m0 0 7 1 14 6v3l-17 7-5-1-16-7 3-3z" fill="#291D48"/>
<path transform="translate(1509,1098)" d="m0 0h6l16 7-1 3-14 6h-7l-16-7 3-3z" fill="#291D49"/>
<path transform="translate(707,1740)" d="m0 0h7l1 5-2 9-6 9-5 3h-5l-3-5 2-8 6-10z" fill="#21253C"/>
<path transform="translate(832,1724)" d="m0 0 9 1 11 5v2l-13 5-10 7-7 5-2-5 2-3h-3l1-4 9-6h5l2-5-13 3-3-1 7-3z" fill="#21263C"/>
<path transform="translate(1064,1707)" d="m0 0v3l-117 117-1 2h-2v2h-2l-2 4-10 9-2-1z" fill="#252143"/>
<path transform="translate(1263,1855)" d="m0 0 7 6 110 110h-3l-13-13-5-4-7-8-15-15-9-8-4-5-6-5-6-7-5-5-8-7-5-5-7-8-24-24z" fill="#2B1C4B"/>
<path transform="translate(760,1779)" d="m0 0h5l1 1v18l-3 3h-2v-2l-4 2-6-1 1-6 4-8 3-5z" fill="#2A1C4A"/>
<path transform="translate(923,1848)" d="m0 0v3l-8 8-1 2h-2v2h-2v2l-5 5-10 9-74 74v-3l10-10z" fill="#252143"/>
<path transform="translate(718,1701)" d="m0 0 5 2 1 2-16 6-11 6-6 5-2-1 3-4h2v-2l-4-1-2-2 2-3 6-3 2 1 13-2h8z" fill="#21263C"/>
<path transform="translate(680,1791)" d="m0 0 2 2-7 14-3 10v12l4 2h-5l-3-7v-3h-3v-6l-2-3 1-4-2-1 2-4 4-2-1 7 5-1 4-11h2z" fill="#21253C"/>
<path transform="translate(288,1839)" d="m0 0h3l-2 7-4 3-3 5-5 5-8 4-3 6-5 1 3-5 5-5 3-5z" fill="#22243D"/>
<path transform="translate(1568,1919)" d="m0 0h2v14l-1 7 1 6-1 3-4 1-1-7-3-5h3l-1-4v-7l1-2h2l1-5z" fill="#21263C"/>
<path transform="translate(841,1759)" d="m0 0h4l1 6-4 8-4 4-4 1-2-2 2-9 5-7z" fill="#21263C"/>
<path transform="translate(842,1570)" d="m0 0 3 1v7l-3 6-4 4-6 1 1-9 4-7z" fill="#281E47"/>
<path transform="translate(1573,1821)" d="m0 0h3v5l-8 7-10 9h-2l2-6 4-8h2l2-4z" fill="#22243E"/>
<path transform="translate(617,1057)" d="m0 0h7l3 4-1 6-2 2h-7l-3-3v-6z" fill="#6423D6"/>
<path transform="translate(639,1810)" d="m0 0 2 4v6h5l2 6 2 9-5-2-7-7-1-10z" fill="#291D48"/>
<path transform="translate(486,1722)" d="m0 0 7 6 22 22-2 1-7-4v-2h-2v-2h-3v-2h-2v-2h-2l-3-3v-3l-3-1-5-8z" fill="#21263C"/>
<path transform="translate(764,1750)" d="m0 0h14l8 1-2 5h-20l-1-2z" fill="#21263C"/>
<path transform="translate(1420,1959)" d="m0 0 4 1v2l-5 4-3 4-3 5h-5l-3-3 2-2v-4l7-2z" fill="#2A1C4A"/>
<path transform="translate(785,1813)" d="m0 0 5 2 2 2v3h2l1 10-10-5-2-6z" fill="#291D48"/>
<path transform="translate(122,951)" d="m0 0 6 1 2 2v6l-4 3-6-1-2-3 1-5z" fill="#2A1C4A"/>
<path transform="translate(164,991)" d="m0 0 5 1 3 4-1 5-3 2-6-1-2-2v-6z" fill="#291D48"/>
<path transform="translate(163,951)" d="m0 0 7 1 2 5-3 5-1 1h-5l-3-3v-6z" fill="#271F45"/>
<path transform="translate(82,951)" d="m0 0h5l3 3-1 7-3 2-5-1-3-3 1-5z" fill="#281E47"/>
<path transform="translate(121,1033)" d="m0 0h6l3 2v6l-2 3h-7l-3-4 1-5z" fill="#281E47"/>
<path transform="translate(82,991)" d="m0 0h5l3 4-1 6-3 2-5-1-3-4 1-5z" fill="#281E47"/>
<path transform="translate(698,1755)" d="m0 0h3l6 1v7l-5 3h-5l-3-5 2-5z" fill="#281E46"/>
<path transform="translate(122,991)" d="m0 0 6 1 2 2-1 7-2 2h-5l-4-5 2-5z" fill="#23233F"/>
<path transform="translate(163,1033)" d="m0 0h6l3 4-2 6-1 1h-6l-3-3 1-7z" fill="#281E46"/>
<path transform="translate(81,1033)" d="m0 0h6l3 3-1 6-2 2h-6l-3-4 1-5z" fill="#291D48"/>
<path transform="translate(660,1775)" d="m0 0 1 4v5h-2v10l-2 3-2 12h-2v9h-1v-13l3-16z" fill="#21263C"/>
<path transform="translate(675,1876)" d="m0 0 6 4 1 5 3 1 2 6-5 1-3-6-8-4 1-4 3-1z" fill="#21263C"/>
<path transform="translate(819,1771)" d="m0 0h1l-1 7-4 5-6 11-2-1-1-8 1-3 5-3h3l3-7z" fill="#2A1C4A"/>
<path transform="translate(704,1731)" d="m0 0h9v1l-10 3-7 6-4 6-2-1-1-3 5-8z" fill="#21253C"/>
<path transform="translate(138,1935)" d="m0 0h2l1 3 3 2-8 4-3 3-5-2 2-5z" fill="#21253C"/>
<path transform="translate(1411,1943)" d="m0 0h3l3 4-1 4-10 5h-2v2l-2-1 4-4h2l1-7z" fill="#2B1C4B"/>
<path transform="translate(637,1760)" d="m0 0 2 3 1 6-2 5-2-2-3 11h-2l1-9z" fill="#21263C"/>
<path transform="translate(640,1882)" d="m0 0 6 4 3 4-1 5-7-6-1-3-4-2z" fill="#2B1C4B"/>
<path transform="translate(755,1736)" d="m0 0h2l1 6v10l-1 8-2-2-1-6v-14z" fill="#21263C"/>
<path transform="translate(733,1679)" d="m0 0 2 1-6 10-3 4 2 4-6-2 1-4z" fill="#21263C"/>
<path transform="translate(211,1942)" d="m0 0 2 1 3 5-4 2v2l-4 1-1-8z" fill="#21263C"/>
<path transform="translate(782,1831)" d="m0 0 5 2 11 6-3 2h-5l-5-4z" fill="#21263C"/>
<path transform="translate(736,1820)" d="m0 0 2 1-8 11-7 6-5 3-2-1 12-11z" fill="#21263C"/>
<path transform="translate(752,1697)" d="m0 0h1l-1 11-1 4-4-2-2-3z" fill="#21263C"/>
<path transform="translate(702,1893)" d="m0 0 3 2v7h-5l-4-6z" fill="#21263C"/>
<path transform="translate(923,1848)" d="m0 0v3l-8 8-1 2h-2v2h-2v2l-5 5-5 2 6-7z" fill="#21263C"/>
<path transform="translate(781,1795)" d="m0 0 2 1-1 10-5 1v-8h2v-2h2z" fill="#2B1C4B"/>
<path transform="translate(122,951)" d="m0 0 6 1 2 2v6l-4 3-4-1 4-1v-2l2-1-1-4-6 1-1 6-2-2 1-5z" fill="#21263C"/>
<path transform="translate(0,1905)" d="m0 0h6l2 3v3l2 1-5 1-5-2z" fill="#21263C"/>
<path transform="translate(947,1824)" d="m0 0v3l-1 2h-2v2h-2l-2 4-10 9-2-1z" fill="#21263C"/>
<path transform="translate(715,1915)" d="m0 0h3v2h4v2l5 1-1 3h2v2l-3 1-5-7h-6l-2-2z" fill="#2B1C4B"/>
<path transform="translate(1222,1817)" d="m0 0 4 2 5 3 1 5-6-1-4-8z" fill="#21253C"/>
<path transform="translate(750,1776)" d="m0 0h2l-1 5-5 13h-1v-7l4-10z" fill="#21263C"/>
<path transform="translate(110,1957)" d="m0 0 7 6 5 5-4 1-9-9z" fill="#2B1C4B"/>
<path transform="translate(825,1807)" d="m0 0 3 2-1 4-3 3-4 1 2-8z" fill="#281E46"/>
<path transform="translate(681,1812)" d="m0 0 3 1 2 4-8 4 1-8z" fill="#271F46"/>
<path transform="translate(670,1854)" d="m0 0h22l-1 2-3 1h-14z" fill="#21263C"/>
<path transform="translate(750,1926)" d="m0 0 5 1h11l-1 4h-11l-4-4z" fill="#21263C"/>
<path transform="translate(631,1799)" d="m0 0 3 1 1 12-1-2h-2l-3-8z" fill="#2B1C4B"/>
<path transform="translate(863,1822)" d="m0 0 1 3-10 10-7 5-2-1 11-9z" fill="#21263C"/>
<path transform="translate(19,1923)" d="m0 0h6l1 3-1 2-7 1-1-4h2z" fill="#21263C"/>
<path transform="translate(842,1570)" d="m0 0 3 1v7l-2 5-1-4 2-6-6 3-3 2 2-5z" fill="#21263C"/>
<path transform="translate(653,1820)" d="m0 0 3 4 3 5-1 6-3-4-2-7z" fill="#21263C"/>
<path transform="translate(276,1963)" d="m0 0 2 4-2 3h-4l-1-5z" fill="#2B1C4B"/>
<path transform="translate(234,1934)" d="m0 0 5 1-2 1-2 4-3 1-1 3v-5z" fill="#21263C"/>
<path transform="translate(667,1863)" d="m0 0 4 1 3 3-1 4-6-4z" fill="#21263C"/>
<path transform="translate(1482,1948)" d="m0 0 4 2-1 5-4-1-1-4z" fill="#2B1C4B"/>
<path transform="translate(901,1947)" d="m0 0 5 1-1 5-4 1-1-6z" fill="#2A1C4A"/>
<path transform="translate(702,1779)" d="m0 0 2 1-12 12v-3l6-7z" fill="#242241"/>
<path transform="translate(105,1948)" d="m0 0 4 4 1 4h-3l-4-4z" fill="#2B1C4B"/>
<path transform="translate(1237,1831)" d="m0 0 7 6 2 3-6-1v-2l-2-1z" fill="#21263C"/>
<path transform="translate(513,1735)" d="m0 0 5 2 6 5 2 5-7-6-6-5z" fill="#21263C"/>
<path transform="translate(618,1977)" d="m0 0 3 1-1 4-5 1v-4z" fill="#2A1C49"/>
<path transform="translate(664,1866)" d="m0 0 3 2v8l-2 1-1-3z" fill="#21263C"/>
<path transform="translate(853,1786)" d="m0 0 4 4v4l-4-2-2-5z" fill="#2B1C4B"/>
</svg>
